<mxfile host="65bd71144e">
    <diagram id="sSvnTln2WhxzCfX_5zcx" name="Page-1">
        <mxGraphModel dx="2103" dy="787" grid="1" gridSize="10" guides="1" tooltips="1" connect="1" arrows="1" fold="1" page="1" pageScale="1" pageWidth="850" pageHeight="1100" math="0" shadow="0">
            <root>
                <mxCell id="0"/>
                <mxCell id="1" parent="0"/>
                <mxCell id="2" value="&lt;font style=&quot;font-size: 19px;&quot;&gt;Time compelxity in recursion :&lt;/font&gt;" style="rounded=1;whiteSpace=wrap;html=1;" vertex="1" parent="1">
                    <mxGeometry x="210" y="30" width="430" height="30" as="geometry"/>
                </mxCell>
                <mxCell id="7" value="1" style="ellipse;whiteSpace=wrap;html=1;aspect=fixed;fontSize=19;" vertex="1" parent="1">
                    <mxGeometry x="70" y="650" width="60" height="60" as="geometry"/>
                </mxCell>
                <mxCell id="8" value="2" style="ellipse;whiteSpace=wrap;html=1;aspect=fixed;fontSize=19;" vertex="1" parent="1">
                    <mxGeometry x="70" y="560" width="60" height="60" as="geometry"/>
                </mxCell>
                <mxCell id="9" value="32" style="ellipse;whiteSpace=wrap;html=1;aspect=fixed;fontSize=19;" vertex="1" parent="1">
                    <mxGeometry x="70" y="200" width="60" height="60" as="geometry"/>
                </mxCell>
                <mxCell id="10" value="16" style="ellipse;whiteSpace=wrap;html=1;aspect=fixed;fontSize=19;" vertex="1" parent="1">
                    <mxGeometry x="70" y="290" width="60" height="60" as="geometry"/>
                </mxCell>
                <mxCell id="11" value="8" style="ellipse;whiteSpace=wrap;html=1;aspect=fixed;fontSize=19;" vertex="1" parent="1">
                    <mxGeometry x="70" y="380" width="60" height="60" as="geometry"/>
                </mxCell>
                <mxCell id="12" value="4" style="ellipse;whiteSpace=wrap;html=1;aspect=fixed;fontSize=19;" vertex="1" parent="1">
                    <mxGeometry x="70" y="470" width="60" height="60" as="geometry"/>
                </mxCell>
                <mxCell id="13" value="here you obsever after first recursive call decrease the search space divided by 2" style="whiteSpace=wrap;html=1;fontSize=15;" vertex="1" parent="1">
                    <mxGeometry x="140" y="200" width="250" height="70" as="geometry"/>
                </mxCell>
                <mxCell id="16" value="" style="edgeStyle=none;html=1;fontSize=15;" edge="1" parent="1" source="14" target="15">
                    <mxGeometry relative="1" as="geometry"/>
                </mxCell>
                <mxCell id="14" value="&lt;b&gt;&lt;font style=&quot;font-size: 17px;&quot;&gt;&lt;u&gt;Time complexity Recursion in Binary searching :&lt;/u&gt;&lt;/font&gt;&lt;/b&gt;" style="text;html=1;align=center;verticalAlign=middle;resizable=0;points=[];autosize=1;strokeColor=none;fillColor=none;fontSize=15;" vertex="1" parent="1">
                    <mxGeometry x="380" y="90" width="420" height="30" as="geometry"/>
                </mxCell>
                <mxCell id="15" value="hre we call call our time complexity is :" style="whiteSpace=wrap;html=1;fontSize=15;" vertex="1" parent="1">
                    <mxGeometry x="310" y="280" width="200" height="60" as="geometry"/>
                </mxCell>
                <mxCell id="17" value="O(log math.pow(2,n)" style="rounded=1;whiteSpace=wrap;html=1;fontSize=15;" vertex="1" parent="1">
                    <mxGeometry x="530" y="280" width="220" height="60" as="geometry"/>
                </mxCell>
                <mxCell id="19" value="" style="line;strokeWidth=2;direction=south;html=1;fontSize=17;" vertex="1" parent="1">
                    <mxGeometry x="180" y="370" width="10" height="320" as="geometry"/>
                </mxCell>
                <mxCell id="20" value="" style="line;strokeWidth=4;html=1;perimeter=backbonePerimeter;points=[];outlineConnect=0;fontSize=17;" vertex="1" parent="1">
                    <mxGeometry x="185" y="360" width="575" height="10" as="geometry"/>
                </mxCell>
                <mxCell id="21" value="&lt;ul style=&quot;font-size: 14px;&quot;&gt;&lt;li style=&quot;font-size: 14px;&quot;&gt;here one problem when you find mid value using : start+end/2&lt;/li&gt;&lt;li style=&quot;font-size: 14px;&quot;&gt;assume start=0 and end= int max value : using this formula find mid : start+end/2 size integer :&lt;/li&gt;&lt;li style=&quot;font-size: 14px;&quot;&gt;let assume your start=int max and end=int max : sum of both intMax+intmax : so integer it's not contain this&amp;nbsp;&lt;/li&gt;&lt;li style=&quot;font-size: 14px;&quot;&gt;size here their capacity fail : it can store more integer max capacity storage :&amp;nbsp;&lt;/li&gt;&lt;li style=&quot;font-size: 14px;&quot;&gt;but if you use mid= start+(end-start)/2 : here secound opertions&amp;nbsp; : (end-start) : intmax-intmax : it return 0 +start /2 : here integer has a capacity to store :&lt;/li&gt;&lt;li style=&quot;font-size: 14px;&quot;&gt;when you used this formula not difference or not changing your answer :&lt;/li&gt;&lt;li style=&quot;font-size: 14px;&quot;&gt;this formula specialy to deal with these type of problem when your stat and end is both same int max :&lt;/li&gt;&lt;li style=&quot;font-size: 14px;&quot;&gt;&lt;br style=&quot;font-size: 14px;&quot;&gt;&lt;/li&gt;&lt;/ul&gt;&lt;div style=&quot;font-size: 14px;&quot;&gt;&lt;br style=&quot;font-size: 14px;&quot;&gt;&lt;/div&gt;" style="text;html=1;align=center;verticalAlign=middle;resizable=0;points=[];autosize=1;strokeColor=none;fillColor=none;fontSize=14;" vertex="1" parent="1">
                    <mxGeometry x="-27.5" y="730" width="1000" height="240" as="geometry"/>
                </mxCell>
            </root>
        </mxGraphModel>
    </diagram>
</mxfile>